<?xml version="1.0" encoding="UTF-8" standalone="no"?>
<svg xmlns:cc="http://creativecommons.org/ns#" xmlns:dc="http://purl.org/dc/elements/1.1/"
    xmlns:inkscape="http://www.inkscape.org/namespaces/inkscape"
    xmlns:rdf="http://www.w3.org/1999/02/22-rdf-syntax-ns#"
    xmlns:sodipodi="http://sodipodi.sourceforge.net/DTD/sodipodi-0.dtd" height="6401.3335" id="svg2"
    version="1.1" viewBox="0 0 6401.3335 6401.3335" width="6401.3335" xmlns="http://www.w3.org/2000/svg"
    sodipodi:docname="shutterstock_1604998057.eps" xml:space="preserve"><metadata
     id="metadata8"><rdf:RDF><cc:Work
         rdf:about=""><dc:format>image/svg+xml</dc:format><dc:type
    rdf:resource="http://purl.org/dc/dcmitype/StillImage" /></cc:Work></rdf:RDF></metadata>
    <defs id="defs6" />
    <sodipodi:namedview bordercolor="#666666" borderopacity="1" gridtolerance="10" guidetolerance="10"
        id="namedview4" objecttolerance="10" pagecolor="#ffffff" inkscape:pageopacity="0"
        inkscape:pageshadow="2" inkscape:window-height="480" inkscape:window-width="640" />
    <g id="g10" transform="matrix(1.3333333,0,0,-1.3333333,0,6401.3333)" inkscape:groupmode="layer"
        inkscape:label="ink_ext_XXXXXX"><g
       id="g12"
       transform="scale(0.1)">
         d="m 22451.8,18873.3 v 664.2 h -664.1 v -290.6 h 338.6 V 19027 c -85.9,-61.5 -191.5,-92.5 -316.8,-92.5 -68.5,0 -130.7,12 -186.8,36.1 -56.1,24 -104.9,58.2 -146.4,101.9 -41.5,43.7 -73.5,95 -96.1,154.4 -22.6,59 -33.9,123.8 -33.9,193.7 v 4.4 c 0,65.5 11.3,127.4 33.9,185 22.6,57.9 53.9,108.1 93.9,151.1 40.1,42.9 86.7,77.5 139.9,103 53.1,25.5 110.3,38.3 171.5,38.3 43.7,0 83.7,-3.7 120.1,-11 36.4,-7.2 70.3,-17.4 101.6,-30.6 31.3,-13.1 61.6,-29.1 90.7,-48 29.1,-19 58.3,-40.8 87.4,-65.6 l 211.9,255.7 c -39.3,33.5 -80.1,63.3 -122.3,89.5 -42.3,26.3 -87.4,48.1 -135.5,65.6 -48.1,17.5 -100.1,30.9 -156.2,40.4 -56.1,9.5 -118.3,14.2 -186.8,14.2 -116.5,0 -223.6,-20.8 -321.2,-62.3 -97.6,-41.5 -182,-98.3 -253.4,-170.4 -71.4,-72.1 -127.1,-155.8 -167.1,-251.2 -40.1,-95.4 -60.1,-197.8 -60.1,-307 v -4.4 c 0,-113.6 19.7,-218.4 59,-314.6 39.3,-96.1 94.3,-179.1 164.9,-249 70.7,-69.9 155.1,-124.6 253.5,-163.9 98.3,-39.3 207.1,-59 326.6,-59 139.8,0 264,23.7 372.5,71 108.5,47.4 202.1,104.5 280.7,171.5"
         style="fill:#ffffff;fill-opacity:1;fill-rule:nonzero;stroke:none"
         id="path20" /><path style="fill:#ef8430;fill-opacity:1;fill-rule:nonzero;stroke:none"
        d="m 25029.7,24035 c 212.4,366.5 494.4,647 776.3,927.1 236,234.6 472,469.2 659.1,750.2 131.9,198.2 245,426.6 315.8,693.7 285.4,1077.9 -180.8,2338.3 -1083.3,2975.9 -528.4,373.3 -1196.4,557 -1915.3,505.8 580.3,-276 990,-703.9 1220.7,-1185.1 171.4,-357.5 244.1,-744.1 214.8,-1119.5 -29.4,-377.7 -161.5,-744.3 -399.2,-1059.8 -360.5,-478.5 -962.8,-838 -1816.8,-935.7 -60.8,-6.9 -115.8,36.7 -122.7,97.5 -6.9,60.8 36.7,115.8 97.5,122.7 787.7,90.1 1339,416 1665.1,849 211.4,280.5 328.9,606.8 355.1,942.7 26.3,338.1 -39,686.1 -193.2,1007.8 -253.2,528 -746.4,986.8 -1467.2,1219.2 -760.8,-154 -1372.2,-537.9 -1742.1,-1145.4 -784.5,-1288.5 -471,-2457.6 400.1,-3478.5 136.5,41.5 255.3,98.8 353.5,174.1 43.1,34.6 106.3,32.3 146.7,-7.5 230.3,-227.5 446.7,-456.1 648.4,-685.5 188,-213.6 366.1,-431.1 533.9,-652.2 h 267.8 v 844.3 c 0,19.6 5.1,38.1 14.1,54.1 3.3,9.7 7.1,19.3 11.1,28.6 21.4,49.5 52.1,94 89.8,130.8 l 0.3,0.2 c 37.3,36.6 82,66.1 131.2,86.3 48.5,19.9 101,30.9 154.8,30.9 h 0.1 c 53.9,0 106.3,-11 154.8,-30.9 49.4,-20.2 94.1,-49.9 131.6,-86.5 37.6,-36.8 68.3,-81.3 89.8,-130.8 5.2,-11.9 9.7,-24.1 13.8,-36.6 h -3.6 c 8.9,-15.6 14.1,-33.5 14.5,-52.7 l 15.2,-834.2 z m -2088.1,-551.8 c 728.3,132.8 1456.6,199.4 2184.8,182 l -1.3,-138.9 c -777.3,-77.5 -1511,-193.1 -2216,-333.8 8.5,122.5 20.4,224.5 32.5,290.7 z m 2179.6,-354.4 -1.4,-139.6 c -757.1,-75.7 -1530.3,-191.6 -2221.1,-327.7 -2.9,94.3 -3.1,188.1 -1.1,277.7 712.8,126.7 1515.1,206 2223.6,189.6 z m -5.6,-566.9 -1.4,-140.2 c -753.9,-75.6 -1467,-187 -2152.6,-322.4 -19.1,82.8 -33.2,174.1 -43.3,269.2 709.2,126.2 1491.5,209.2 2197.3,193.4 z m -5.5,-558.1 -1,-107.2 c -627.2,-121.6 -1242.5,-192.7 -1846.7,-199.4 -87.4,-1 -155.3,53.6 -207.6,144.3 685.1,118.4 1370.2,177.5 2055.3,162.3 z m -2918.3,5633.7 c 196.3,0 355.5,-159.2 355.5,-355.5 0,-196.2 -159.2,-355.4 -355.5,-355.4 -196.3,0 -355.4,159.2 -355.4,355.4 0,196.3 159.1,355.5 355.4,355.5 z m -37,-2614.4 22.9,-24.5 c 330.4,-350.5 658.4,-698.4 831.8,-1061.6 26.3,-55.3 2.8,-121.5 -52.5,-147.8 -55.3,-26.3 -121.5,-2.8 -147.8,52.5 -158.9,332.8 -474.7,667.7 -792.8,1005.1 -33.4,35.5 -66.2,71 -98.3,106.9 -197.1,-43.7 -420.1,-62 -663.7,-60 -61,0.5 -110.1,50.4 -109.6,111.4 0.5,61 50.4,110.1 111.4,109.7 178.3,-1.6 344.4,8.8 496,33 -876.6,1075.9 -1158.2,2316.2 -346.8,3648.6 407.9,669.9 1079.8,1089.6 1913.3,1252.4 l 2.7,0.6 0.6,0.1 2,0.4 c 108.7,21.1 217.8,37.2 326.4,48.5 814.9,84.4 1576.6,-112.8 2174.6,-535.4 977.5,-690.6 1478.9,-2047 1170,-3213.3 -77.7,-293.5 -201.4,-543.5 -345.3,-759.7 -199.2,-299.1 -443.4,-542 -687.7,-784.7 -283.1,-281.5 -566.5,-563.2 -766.3,-925.9 -17.2,-39.2 -56.2,-66.4 -101.6,-66.4 h -440.2 c -61.3,0 -111,49.7 -111,111 l 0.2,7.8 -7,352.4 h 0.1 v 462.7 c 0,349 -369.6,333.4 -369.6,17.9 v -480.6 -363.7 c 0,-61.3 -49.7,-111 -110.9,-111 h -433.6 c -39.8,0 -74.6,21 -94.2,52.5 -169.5,225.2 -353.4,450.3 -551.3,675.3 -181.1,205.8 -371.9,409 -572,609.3 -76.1,-48.8 -159.6,-89.7 -249.8,-123.5"
        id="path50" /></g></g></svg>
